<?xml version="1.0" encoding="UTF-8" standalone="no"?>
<!DOCTYPE svg PUBLIC "-//W3C//DTD SVG 1.1//EN"
 "http://www.w3.org/Graphics/SVG/1.1/DTD/svg11.dtd">
<!-- Generated by graphviz version 2.40.1 (20161225.0304)
 -->
<!-- Title: %3 Pages: 1 -->
<svg width="377pt" height="133pt"
 viewBox="0.00 0.00 377.23 132.63" xmlns="http://www.w3.org/2000/svg" xmlns:xlink="http://www.w3.org/1999/xlink">
<g id="graph0" class="graph" transform="scale(1 1) rotate(0) translate(4 128.6339)">
<title>%3</title>
<polygon fill="#ffffff" stroke="transparent" points="-4,4 -4,-128.6339 373.2314,-128.6339 373.2314,4 -4,4"/>
<!-- &#45;6812249948772080146 -->
<g id="node1" class="node">
<title>&#45;6812249948772080146</title>
<polygon fill="none" stroke="#000000" points="111.3474,-124.6339 -.116,-124.6339 -.116,-88.6339 111.3474,-88.6339 111.3474,-124.6339"/>
<text text-anchor="middle" x="55.6157" y="-102.4339" font-family="Times,serif" font-size="14.00" fill="#000000">(&#39;wrapped&#45;#0&#39;, 0)</text>
</g>
<!-- 5014570530604154900 -->
<g id="node2" class="node">
<title>5014570530604154900</title>
<ellipse fill="none" stroke="#000000" cx="55.6157" cy="-26.317" rx="26.1352" ry="26.1352"/>
<text text-anchor="middle" x="55.6157" y="-22.117" font-family="Times,serif" font-size="14.00" fill="#000000">ones</text>
</g>
<!-- 5014570530604154900&#45;&gt;&#45;6812249948772080146 -->
<g id="edge1" class="edge">
<title>5014570530604154900&#45;&gt;&#45;6812249948772080146</title>
<path fill="none" stroke="#000000" d="M55.6157,-53.0613C55.6157,-61.1841 55.6157,-70.134 55.6157,-78.3542"/>
<polygon fill="#000000" stroke="#000000" points="52.1158,-78.6092 55.6157,-88.6092 59.1158,-78.6093 52.1158,-78.6092"/>
</g>
<!-- &#45;6812249948773162671 -->
<g id="node3" class="node">
<title>&#45;6812249948773162671</title>
<polygon fill="none" stroke="#000000" points="240.3474,-124.6339 128.884,-124.6339 128.884,-88.6339 240.3474,-88.6339 240.3474,-124.6339"/>
<text text-anchor="middle" x="184.6157" y="-102.4339" font-family="Times,serif" font-size="14.00" fill="#000000">(&#39;wrapped&#45;#0&#39;, 1)</text>
</g>
<!-- &#45;2317744555763223425 -->
<g id="node4" class="node">
<title>&#45;2317744555763223425</title>
<ellipse fill="none" stroke="#000000" cx="184.6157" cy="-26.317" rx="26.1352" ry="26.1352"/>
<text text-anchor="middle" x="184.6157" y="-22.117" font-family="Times,serif" font-size="14.00" fill="#000000">ones</text>
</g>
<!-- &#45;2317744555763223425&#45;&gt;&#45;6812249948773162671 -->
<g id="edge2" class="edge">
<title>&#45;2317744555763223425&#45;&gt;&#45;6812249948773162671</title>
<path fill="none" stroke="#000000" d="M184.6157,-53.0613C184.6157,-61.1841 184.6157,-70.134 184.6157,-78.3542"/>
<polygon fill="#000000" stroke="#000000" points="181.1158,-78.6092 184.6157,-88.6092 188.1158,-78.6093 181.1158,-78.6092"/>
</g>
<!-- &#45;6812249948774245196 -->
<g id="node5" class="node">
<title>&#45;6812249948774245196</title>
<polygon fill="none" stroke="#000000" points="369.3474,-124.6339 257.884,-124.6339 257.884,-88.6339 369.3474,-88.6339 369.3474,-124.6339"/>
<text text-anchor="middle" x="313.6157" y="-102.4339" font-family="Times,serif" font-size="14.00" fill="#000000">(&#39;wrapped&#45;#0&#39;, 2)</text>
</g>
<!-- &#45;7850420139955866566 -->
<g id="node6" class="node">
<title>&#45;7850420139955866566</title>
<ellipse fill="none" stroke="#000000" cx="313.6157" cy="-26.317" rx="26.1352" ry="26.1352"/>
<text text-anchor="middle" x="313.6157" y="-22.117" font-family="Times,serif" font-size="14.00" fill="#000000">ones</text>
</g>
<!-- &#45;7850420139955866566&#45;&gt;&#45;6812249948774245196 -->
<g id="edge3" class="edge">
<title>&#45;7850420139955866566&#45;&gt;&#45;6812249948774245196</title>
<path fill="none" stroke="#000000" d="M313.6157,-53.0613C313.6157,-61.1841 313.6157,-70.134 313.6157,-78.3542"/>
<polygon fill="#000000" stroke="#000000" points="310.1158,-78.6092 313.6157,-88.6092 317.1158,-78.6093 310.1158,-78.6092"/>
</g>
</g>
</svg>
