<?xml version="1.0" encoding="UTF-8" standalone="no"?>
<!DOCTYPE svg PUBLIC "-//W3C//DTD SVG 1.1//EN"
 "http://www.w3.org/Graphics/SVG/1.1/DTD/svg11.dtd">
<!-- Generated by graphviz version 2.40.1 (20161225.0304)
 -->
<!-- Title: %3 Pages: 1 -->
<svg width="377pt" height="448pt"
 viewBox="0.00 0.00 377.23 448.03" xmlns="http://www.w3.org/2000/svg" xmlns:xlink="http://www.w3.org/1999/xlink">
<g id="graph0" class="graph" transform="scale(1 1) rotate(0) translate(4 444.0292)">
<title>%3</title>
<polygon fill="#ffffff" stroke="transparent" points="-4,4 -4,-444.0292 373.2314,-444.0292 373.2314,4 -4,4"/>
<!-- 8835956881419155736 -->
<g id="node1" class="node">
<title>8835956881419155736</title>
<polygon fill="none" stroke="#000000" points="343.9857,-282.3315 257.2458,-282.3315 257.2458,-246.3315 343.9857,-246.3315 343.9857,-282.3315"/>
<text text-anchor="middle" x="300.6157" y="-260.1315" font-family="Times,serif" font-size="14.00" fill="#000000">(&#39;sum&#45;#0&#39;, 0)</text>
</g>
<!-- 118441192495515120 -->
<g id="node14" class="node">
<title>118441192495515120</title>
<ellipse fill="none" stroke="#000000" cx="184.6157" cy="-343.1803" rx="24.6985" ry="24.6985"/>
<text text-anchor="middle" x="184.6157" y="-338.9803" font-family="Times,serif" font-size="14.00" fill="#000000">sum</text>
</g>
<!-- 8835956881419155736&#45;&gt;118441192495515120 -->
<g id="edge11" class="edge">
<title>8835956881419155736&#45;&gt;118441192495515120</title>
<path fill="none" stroke="#000000" d="M274.003,-282.421C255.9868,-294.6672 232.1888,-310.8435 213.6779,-323.4259"/>
<polygon fill="#000000" stroke="#000000" points="211.6277,-320.5874 205.3249,-329.1037 215.5628,-326.3766 211.6277,-320.5874"/>
</g>
<!-- &#45;9070701047361720594 -->
<g id="node2" class="node">
<title>&#45;9070701047361720594</title>
<ellipse fill="none" stroke="#000000" cx="306.6157" cy="-185.4827" rx="24.6985" ry="24.6985"/>
<text text-anchor="middle" x="306.6157" y="-181.2827" font-family="Times,serif" font-size="14.00" fill="#000000">sum</text>
</g>
<!-- &#45;9070701047361720594&#45;&gt;8835956881419155736 -->
<g id="edge1" class="edge">
<title>&#45;9070701047361720594&#45;&gt;8835956881419155736</title>
<path fill="none" stroke="#000000" d="M304.7173,-210.431C304.0993,-218.5522 303.4089,-227.625 302.7734,-235.9767"/>
<polygon fill="#000000" stroke="#000000" points="299.2763,-235.8071 302.0073,-246.0439 306.2561,-236.3383 299.2763,-235.8071"/>
</g>
<!-- &#45;6812249948772080146 -->
<g id="node3" class="node">
<title>&#45;6812249948772080146</title>
<polygon fill="none" stroke="#000000" points="369.3474,-124.6339 257.884,-124.6339 257.884,-88.6339 369.3474,-88.6339 369.3474,-124.6339"/>
<text text-anchor="middle" x="313.6157" y="-102.4339" font-family="Times,serif" font-size="14.00" fill="#000000">(&#39;wrapped&#45;#1&#39;, 0)</text>
</g>
<!-- &#45;6812249948772080146&#45;&gt;&#45;9070701047361720594 -->
<g id="edge2" class="edge">
<title>&#45;6812249948772080146&#45;&gt;&#45;9070701047361720594</title>
<path fill="none" stroke="#000000" d="M311.9922,-124.9216C311.3129,-132.5731 310.4998,-141.7326 309.714,-150.5838"/>
<polygon fill="#000000" stroke="#000000" points="306.2119,-150.4534 308.8138,-160.7238 313.1844,-151.0725 306.2119,-150.4534"/>
</g>
<!-- 8835956881418073211 -->
<g id="node4" class="node">
<title>8835956881418073211</title>
<polygon fill="none" stroke="#000000" points="117.9857,-282.3315 31.2458,-282.3315 31.2458,-246.3315 117.9857,-246.3315 117.9857,-282.3315"/>
<text text-anchor="middle" x="74.6157" y="-260.1315" font-family="Times,serif" font-size="14.00" fill="#000000">(&#39;sum&#45;#0&#39;, 1)</text>
</g>
<!-- 8835956881418073211&#45;&gt;118441192495515120 -->
<g id="edge13" class="edge">
<title>8835956881418073211&#45;&gt;118441192495515120</title>
<path fill="none" stroke="#000000" d="M99.8519,-282.421C116.6409,-294.4555 138.7247,-310.2853 156.142,-322.7701"/>
<polygon fill="#000000" stroke="#000000" points="154.107,-325.6177 164.2737,-328.5991 158.1852,-319.9284 154.107,-325.6177"/>
</g>
<!-- 3363473879291646281 -->
<g id="node5" class="node">
<title>3363473879291646281</title>
<ellipse fill="none" stroke="#000000" cx="67.6157" cy="-185.4827" rx="24.6985" ry="24.6985"/>
<text text-anchor="middle" x="67.6157" y="-181.2827" font-family="Times,serif" font-size="14.00" fill="#000000">sum</text>
</g>
<!-- 3363473879291646281&#45;&gt;8835956881418073211 -->
<g id="edge3" class="edge">
<title>3363473879291646281&#45;&gt;8835956881418073211</title>
<path fill="none" stroke="#000000" d="M69.8306,-210.431C70.5515,-218.5522 71.357,-227.625 72.0985,-235.9767"/>
<polygon fill="#000000" stroke="#000000" points="68.6215,-236.3926 72.9922,-246.0439 75.5941,-235.7735 68.6215,-236.3926"/>
</g>
<!-- &#45;6812249948773162671 -->
<g id="node6" class="node">
<title>&#45;6812249948773162671</title>
<polygon fill="none" stroke="#000000" points="111.3474,-124.6339 -.116,-124.6339 -.116,-88.6339 111.3474,-88.6339 111.3474,-124.6339"/>
<text text-anchor="middle" x="55.6157" y="-102.4339" font-family="Times,serif" font-size="14.00" fill="#000000">(&#39;wrapped&#45;#1&#39;, 1)</text>
</g>
<!-- &#45;6812249948773162671&#45;&gt;3363473879291646281 -->
<g id="edge4" class="edge">
<title>&#45;6812249948773162671&#45;&gt;3363473879291646281</title>
<path fill="none" stroke="#000000" d="M58.3989,-124.9216C59.5634,-132.5731 60.9574,-141.7326 62.3044,-150.5838"/>
<polygon fill="#000000" stroke="#000000" points="58.8828,-151.3643 63.8477,-160.7238 65.8032,-150.311 58.8828,-151.3643"/>
</g>
<!-- 8835956881421320786 -->
<g id="node7" class="node">
<title>8835956881421320786</title>
<polygon fill="none" stroke="#000000" points="227.9857,-282.3315 141.2458,-282.3315 141.2458,-246.3315 227.9857,-246.3315 227.9857,-282.3315"/>
<text text-anchor="middle" x="184.6157" y="-260.1315" font-family="Times,serif" font-size="14.00" fill="#000000">(&#39;sum&#45;#0&#39;, 2)</text>
</g>
<!-- 8835956881421320786&#45;&gt;118441192495515120 -->
<g id="edge12" class="edge">
<title>8835956881421320786&#45;&gt;118441192495515120</title>
<path fill="none" stroke="#000000" d="M184.6157,-282.6192C184.6157,-290.2053 184.6157,-299.2737 184.6157,-308.0544"/>
<polygon fill="#000000" stroke="#000000" points="181.1158,-308.1237 184.6157,-318.1238 188.1158,-308.1238 181.1158,-308.1237"/>
</g>
<!-- &#45;2220297785882997144 -->
<g id="node8" class="node">
<title>&#45;2220297785882997144</title>
<ellipse fill="none" stroke="#000000" cx="184.6157" cy="-185.4827" rx="24.6985" ry="24.6985"/>
<text text-anchor="middle" x="184.6157" y="-181.2827" font-family="Times,serif" font-size="14.00" fill="#000000">sum</text>
</g>
<!-- &#45;2220297785882997144&#45;&gt;8835956881421320786 -->
<g id="edge5" class="edge">
<title>&#45;2220297785882997144&#45;&gt;8835956881421320786</title>
<path fill="none" stroke="#000000" d="M184.6157,-210.431C184.6157,-218.5522 184.6157,-227.625 184.6157,-235.9767"/>
<polygon fill="#000000" stroke="#000000" points="181.1158,-236.0438 184.6157,-246.0439 188.1158,-236.0439 181.1158,-236.0438"/>
</g>
<!-- &#45;6812249948774245196 -->
<g id="node9" class="node">
<title>&#45;6812249948774245196</title>
<polygon fill="none" stroke="#000000" points="240.3474,-124.6339 128.884,-124.6339 128.884,-88.6339 240.3474,-88.6339 240.3474,-124.6339"/>
<text text-anchor="middle" x="184.6157" y="-102.4339" font-family="Times,serif" font-size="14.00" fill="#000000">(&#39;wrapped&#45;#1&#39;, 2)</text>
</g>
<!-- &#45;6812249948774245196&#45;&gt;&#45;2220297785882997144 -->
<g id="edge6" class="edge">
<title>&#45;6812249948774245196&#45;&gt;&#45;2220297785882997144</title>
<path fill="none" stroke="#000000" d="M184.6157,-124.9216C184.6157,-132.5077 184.6157,-141.5761 184.6157,-150.3567"/>
<polygon fill="#000000" stroke="#000000" points="181.1158,-150.4261 184.6157,-160.4261 188.1158,-150.4262 181.1158,-150.4261"/>
</g>
<!-- 5014570530604154900 -->
<g id="node10" class="node">
<title>5014570530604154900</title>
<ellipse fill="none" stroke="#000000" cx="313.6157" cy="-26.317" rx="26.1352" ry="26.1352"/>
<text text-anchor="middle" x="313.6157" y="-22.117" font-family="Times,serif" font-size="14.00" fill="#000000">ones</text>
</g>
<!-- 5014570530604154900&#45;&gt;&#45;6812249948772080146 -->
<g id="edge7" class="edge">
<title>5014570530604154900&#45;&gt;&#45;6812249948772080146</title>
<path fill="none" stroke="#000000" d="M313.6157,-53.0613C313.6157,-61.1841 313.6157,-70.134 313.6157,-78.3542"/>
<polygon fill="#000000" stroke="#000000" points="310.1158,-78.6092 313.6157,-88.6092 317.1158,-78.6093 310.1158,-78.6092"/>
</g>
<!-- &#45;2317744555763223425 -->
<g id="node11" class="node">
<title>&#45;2317744555763223425</title>
<ellipse fill="none" stroke="#000000" cx="55.6157" cy="-26.317" rx="26.1352" ry="26.1352"/>
<text text-anchor="middle" x="55.6157" y="-22.117" font-family="Times,serif" font-size="14.00" fill="#000000">ones</text>
</g>
<!-- &#45;2317744555763223425&#45;&gt;&#45;6812249948773162671 -->
<g id="edge8" class="edge">
<title>&#45;2317744555763223425&#45;&gt;&#45;6812249948773162671</title>
<path fill="none" stroke="#000000" d="M55.6157,-53.0613C55.6157,-61.1841 55.6157,-70.134 55.6157,-78.3542"/>
<polygon fill="#000000" stroke="#000000" points="52.1158,-78.6092 55.6157,-88.6092 59.1158,-78.6093 52.1158,-78.6092"/>
</g>
<!-- &#45;7850420139955866566 -->
<g id="node12" class="node">
<title>&#45;7850420139955866566</title>
<ellipse fill="none" stroke="#000000" cx="184.6157" cy="-26.317" rx="26.1352" ry="26.1352"/>
<text text-anchor="middle" x="184.6157" y="-22.117" font-family="Times,serif" font-size="14.00" fill="#000000">ones</text>
</g>
<!-- &#45;7850420139955866566&#45;&gt;&#45;6812249948774245196 -->
<g id="edge9" class="edge">
<title>&#45;7850420139955866566&#45;&gt;&#45;6812249948774245196</title>
<path fill="none" stroke="#000000" d="M184.6157,-53.0613C184.6157,-61.1841 184.6157,-70.134 184.6157,-78.3542"/>
<polygon fill="#000000" stroke="#000000" points="181.1158,-78.6092 184.6157,-88.6092 188.1158,-78.6093 181.1158,-78.6092"/>
</g>
<!-- &#45;9033667700010587126 -->
<g id="node13" class="node">
<title>&#45;9033667700010587126</title>
<polygon fill="none" stroke="#000000" points="252.0542,-440.0292 117.1772,-440.0292 117.1772,-404.0292 252.0542,-404.0292 252.0542,-440.0292"/>
<text text-anchor="middle" x="184.6157" y="-417.8292" font-family="Times,serif" font-size="14.00" fill="#000000">(&#39;sum&#45;aggregate&#45;#2&#39;,)</text>
</g>
<!-- 118441192495515120&#45;&gt;&#45;9033667700010587126 -->
<g id="edge10" class="edge">
<title>118441192495515120&#45;&gt;&#45;9033667700010587126</title>
<path fill="none" stroke="#000000" d="M184.6157,-368.1286C184.6157,-376.2498 184.6157,-385.3227 184.6157,-393.6743"/>
<polygon fill="#000000" stroke="#000000" points="181.1158,-393.7414 184.6157,-403.7415 188.1158,-393.7415 181.1158,-393.7414"/>
</g>
</g>
</svg>
